<?xml version="1.0" encoding="utf-8"?>
<!-- Generator: Adobe Illustrator 14.0.0, SVG Export Plug-In . SVG Version: 6.00 Build 43363)  -->
<!DOCTYPE svg PUBLIC "-//W3C//DTD SVG 1.1//EN" "http://www.w3.org/Graphics/SVG/1.1/DTD/svg11.dtd">
<svg version="1.1" id="レイヤー_1" xmlns="http://www.w3.org/2000/svg" xmlns:xlink="http://www.w3.org/1999/xlink" x="0px"
	 y="0px" width="45.354px" height="45.354px" viewBox="0 0 45.354 45.354" enable-background="new 0 0 45.354 45.354"
	 xml:space="preserve">
<path d="M43.937,31.259H25.276c-0.413-1.239-1.371-2.217-2.6-2.653v-3.095h15.591c2.339,0,4.252-1.913,4.252-4.252v-8.505
	c0-2.338-1.913-4.252-4.252-4.252H7.086c-2.338,0-4.252,1.914-4.252,4.252v8.505c0,2.339,1.914,4.252,4.252,4.252h12.755v3.096
	c-1.228,0.437-2.185,1.414-2.598,2.652H1.417C0.638,31.259,0,31.896,0,32.676s0.638,1.417,1.417,1.417h15.875
	c0.606,1.608,2.147,2.757,3.968,2.757s3.361-1.148,3.968-2.757h18.709c0.779,0,1.417-0.638,1.417-1.417S44.716,31.259,43.937,31.259
	z M5.669,19.841v-5.669c0-1.559,1.275-2.834,2.834-2.834H36.85c1.56,0,2.835,1.275,2.835,2.834v5.669
	c0,1.56-1.275,2.835-2.835,2.835H8.504C6.945,22.676,5.669,21.4,5.669,19.841z"/>
<path d="M36.85,18.425c0,0.779-0.638,1.417-1.417,1.417h-0.001c-0.779,0-1.417-0.638-1.417-1.417V15.59
	c0-0.78,0.638-1.417,1.417-1.417h0.001c0.779,0,1.417,0.638,1.417,1.417V18.425z"/>
<path d="M31.181,18.425c0,0.779-0.638,1.417-1.417,1.417h-0.001c-0.779,0-1.417-0.638-1.417-1.417V15.59
	c0-0.78,0.638-1.417,1.417-1.417h0.001c0.779,0,1.417,0.638,1.417,1.417V18.425z"/>
<path d="M25.511,18.425c0,0.779-0.638,1.417-1.417,1.417H9.921c-0.78,0-1.417-0.638-1.417-1.417V15.59
	c0-0.78,0.638-1.417,1.417-1.417h14.173c0.779,0,1.417,0.638,1.417,1.417V18.425z"/>
</svg>
